<?xml version="1.0" encoding="UTF-8" standalone="no"?>
<!-- Created with Inkscape (http://www.inkscape.org/) -->

<svg
   version="1.1"
   id="svg48"
   width="666.66669"
   height="666.66669"
   viewBox="0 0 666.66669 666.66669"
   xmlns:xlink="http://www.w3.org/1999/xlink"
   xmlns="http://www.w3.org/2000/svg"
   xmlns:svg="http://www.w3.org/2000/svg">
  <defs
     id="defs52" />
  <g
     id="g54">
    <path
       style="fill:#671E75;stroke-width:1.33333"
       d="m 39.846763,534.16053 c -7.880294,-2.81611 -12.743075,-7.09552 -16.398698,-14.43141 l -3.448064,-6.91936 V 336.89292 c 0,-130.11554 0.404757,-177.26782 1.554618,-181.10571 2.028936,-6.77199 11.124342,-15.14919 18.647405,-17.17494 8.119724,-2.18641 18.487921,-1.06003 23.573117,2.56095 4.702183,3.34825 122.457519,133.43738 127.463589,140.81422 12.29678,18.12033 -2.07838,43.80208 -24.57206,43.89884 -12.66836,0.0545 -14.93576,-1.82042 -52.22226,-43.18258 -18.822244,-20.87964 -34.872245,-38.17964 -35.666667,-38.44445 -1.030638,-0.34353 -1.444407,38.13965 -1.444407,134.33915 0,148.68561 0.489689,139.9565 -8.364543,149.10482 -4.271139,4.413 -14.252079,8.35149 -20.877459,8.23828 -1.883567,-0.0321 -5.593623,-0.83363 -8.244571,-1.78097 z m 318.153247,0.95532 c -10.23872,-2.20707 -12.83628,-4.7578 -73.06616,-71.74885 -32.98268,-36.68517 -61.35079,-68.51119 -63.04026,-70.72447 -10.72961,-14.05628 -5.38317,-35.57484 10.71943,-43.14396 7.42684,-3.49102 16.8572,-3.62382 24.05366,-0.33872 5.92733,2.70578 10.81422,7.72422 49.33333,50.66131 l 26.66667,29.72522 0.66666,-135.10653 c 0.49986,-101.29974 1.06882,-136.00655 2.27383,-138.70347 0.88395,-1.97833 3.7721,-5.99328 6.41811,-8.92211 13.57308,-15.02376 37.08376,-11.75768 46.30807,6.43307 l 3.66666,7.23084 -0.008,175.42758 c -0.005,123.94123 -0.43985,176.99287 -1.48082,180.76092 -3.25036,11.76553 -19.84152,21.18038 -32.51174,18.44917 z m 250.16921,-1.0378 c -6.86669,-2.23003 -12.62983,-7.34147 -16.62464,-14.7447 l -2.87789,-5.33333 V 337.33335 c 0,-140.41006 0.35125,-177.65641 1.71153,-181.48933 0.94135,-2.65245 3.87285,-6.98396 6.51445,-9.62556 14.33104,-14.33103 37.03077,-10.87055 46.10735,7.02888 l 3.66667,7.23084 v 174.76973 c 0,109.77355 -0.48443,176.4588 -1.30257,179.31152 -4.53088,15.79826 -21.39718,24.64911 -37.1949,19.51862 z"
       id="path216" />
  </g>
</svg>
